<svg width="200" height="448" viewBox="0 0 200 448" fill="none" xmlns="http://www.w3.org/2000/svg">
<g opacity="0.4">
<rect x="71.9966" y="338" width="49" height="102" fill="#AC7950" stroke="#321F15" stroke-width="12" stroke-linejoin="round"/>
<path d="M95.4897 98.3125C109.653 98.1435 124.294 102.16 135.111 110.983C145.994 119.861 152.588 133.3 151.044 150.775L150.965 151.611L150.943 151.804L120.943 373.804C120.541 376.78 118 379 114.997 379H77.9966C74.9935 379 72.4526 376.78 72.0503 373.804L42.0503 151.804L42.0513 151.803C39.5221 134.501 45.674 120.89 56.3813 111.769C66.8589 102.843 81.3312 98.4815 95.4897 98.3125Z" fill="#AC7950" stroke="#321F15" stroke-width="12" stroke-linejoin="round"/>
<path d="M63.2272 175.532C57.0628 121.273 134.146 119.05 129.69 175.532L109.134 373H83.7826L63.2272 175.532Z" fill="#C48B5E"/>
<path d="M20.1317 117.132C21.8521 115.412 24.4412 114.901 26.6863 115.838L69.1748 133.578L69.4932 133.722C71.06 134.486 72.2232 135.898 72.6676 137.595C73.8204 141.999 72.4649 146.505 70.7396 150.011C68.9275 153.693 66.217 157.282 63.1983 160.331C60.1831 163.377 56.62 166.127 52.9321 167.936C49.52 169.61 45.11 170.904 40.7573 169.717L40.3368 169.595C38.6392 169.068 37.2623 167.815 36.5775 166.175L18.8377 123.687L18.7541 123.475C17.9336 121.28 18.4652 118.799 20.1317 117.132Z" fill="#E4C047" stroke="#321F15" stroke-width="12" stroke-linejoin="round"/>
<path d="M171.381 196.155C172.598 198.262 172.422 200.896 170.935 202.822L142.803 239.271L142.581 239.541C141.438 240.857 139.773 241.615 138.018 241.605C133.466 241.579 129.464 239.103 126.524 236.529C123.437 233.826 120.672 230.279 118.508 226.574C116.346 222.873 114.612 218.72 113.819 214.689C113.086 210.96 112.977 206.366 115.25 202.468L115.477 202.094C116.425 200.59 117.992 199.584 119.753 199.348L165.385 193.209L165.612 193.183C167.944 192.959 170.203 194.114 171.381 196.155Z" fill="#E4C047" stroke="#321F15" stroke-width="12" stroke-linejoin="round"/>
<path d="M139.127 62.4057C141.307 63.4874 142.617 65.7781 142.445 68.205L139.186 114.133L139.151 114.481C138.927 116.209 137.96 117.762 136.493 118.725C132.687 121.222 127.984 121.375 124.111 120.858C120.044 120.315 115.777 118.891 111.924 117.003C108.076 115.117 104.333 112.618 101.442 109.7C98.767 107 96.1338 103.233 95.87 98.729L95.8517 98.2915C95.8092 96.5146 96.5573 94.81 97.8932 93.6377L132.502 63.2703L132.677 63.1235C134.495 61.6458 137.016 61.3579 139.127 62.4057Z" fill="#E4C047" stroke="#321F15" stroke-width="12" stroke-linejoin="round"/>
</g>
</svg>
