<svg width="200" height="448" viewBox="0 0 200 448" fill="none" xmlns="http://www.w3.org/2000/svg">
<g opacity="0.4">
<path d="M33.3228 360.043C20.405 360.043 8.63889 349.543 9.00732 335.23L9.03467 334.547C10.1904 312.49 19.3346 291.555 34.8286 275.697L35.5718 274.945C52.6428 257.874 75.796 248.284 99.938 248.284C123.703 248.284 146.51 257.577 163.5 274.15L164.305 274.945C180.001 290.641 189.372 311.477 190.781 333.497L190.842 334.547C191.61 349.208 179.676 360.043 166.553 360.043L166.142 360.029C165.184 359.963 164.254 359.669 163.431 359.167C139.23 344.421 120.702 337.929 101.971 338.118C83.102 338.309 63.1571 345.279 36.0933 359.365L35.7681 359.522C34.9999 359.865 34.1666 360.043 33.3228 360.043ZM36.2036 330.816C60.3856 317.535 80.4643 310.425 100.718 310.397C120.911 310.37 140.47 317.381 163.65 330.652C161.767 316.798 155.402 303.845 145.404 293.847L144.835 293.285C132.834 281.578 116.724 275.015 99.938 275.015C82.8854 275.015 66.5312 281.789 54.4731 293.847L53.9477 294.378C44.2125 304.342 38.0259 317.144 36.2036 330.816Z" fill="#B06438" stroke="#321F15" stroke-width="12" stroke-linejoin="round"/>
<rect x="87" y="419" width="210" height="26" transform="rotate(-90 87 419)" fill="#A161C4" stroke="#321F15" stroke-width="12" stroke-linejoin="round"/>
<path d="M71.8765 402.209L71.8862 401.861C71.9868 400.128 72.8352 398.516 74.2212 397.451L96.6245 380.242L96.8286 380.092C98.8973 378.636 101.661 378.636 103.73 380.092L103.934 380.242L126.337 397.451C127.816 398.587 128.682 400.345 128.682 402.209L128.682 434.86C128.682 437.145 127.384 439.232 125.334 440.242C123.285 441.252 120.84 441.01 119.028 439.618L100.279 425.217L81.5317 439.618C79.7196 441.01 77.2738 441.252 75.2241 440.242C73.1745 439.232 71.8765 437.145 71.8765 434.86L71.8765 402.209Z" fill="#A161C4" stroke="#321F15" stroke-width="12" stroke-linejoin="round"/>
<path d="M64.0581 405.488C62.1864 403.944 61.4286 401.424 62.1392 399.104L72.1392 366.452L72.2124 366.23C72.5969 365.13 73.2941 364.163 74.2212 363.451L96.6245 346.242L96.8286 346.092C98.9662 344.588 101.846 344.638 103.934 346.242L126.337 363.451C127.326 364.211 128.054 365.26 128.419 366.452L138.419 399.104C139.13 401.424 138.373 403.944 136.501 405.488C134.63 407.033 132.011 407.297 129.868 406.159L100.279 390.445L70.6909 406.159C68.5477 407.297 65.9299 407.033 64.0581 405.488Z" fill="#D07BD3" stroke="#321F15" stroke-width="12" stroke-linejoin="round"/>
<path d="M122.53 212.497C123.182 214.334 122.902 216.373 121.778 217.966C120.654 219.558 118.826 220.506 116.876 220.506L83.8276 220.506C81.8783 220.506 80.0505 219.558 78.9263 217.966C77.8021 216.373 77.5217 214.334 78.1743 212.497L94.6987 165.991C95.5489 163.599 97.8129 162 100.352 162C102.891 162 105.156 163.599 106.006 165.991L122.53 212.497Z" fill="#D07BD3" stroke="#321F15" stroke-width="12" stroke-linejoin="round"/>
</g>
</svg>
