<svg width="200" height="448" viewBox="0 0 200 448" fill="none" xmlns="http://www.w3.org/2000/svg">
<mask id="path-1-outside-1_29_429" maskUnits="userSpaceOnUse" x="2" y="173" width="197" height="273" fill="black">
<rect fill="white" x="2" y="173" width="197" height="273"/>
<path d="M95.46 186.474C106.777 184.051 117.915 191.151 120.536 202.373C144.771 206.485 166.752 217.865 184.359 235.472C187.367 238.48 187.367 243.37 184.359 246.377C181.352 249.385 176.461 249.385 173.453 246.377C159.054 231.979 141.031 222.241 121.332 218.216C121.138 218.149 120.94 218.095 120.738 218.056C119.953 217.905 119.157 217.762 118.354 217.625C116.037 221.724 112.372 225.04 107.813 226.869V296.023H112.957C117.045 296.023 120.358 299.337 120.358 303.425C120.358 303.481 120.355 303.536 120.354 303.591C120.355 303.649 120.358 303.708 120.358 303.766V313.447C120.358 317.723 116.892 321.189 112.616 321.189H107.813V425.5C107.813 429.643 104.455 433 100.313 433C96.1705 433 92.8126 429.643 92.8126 425.5V321.189H88.1319C83.8558 321.189 80.3888 317.723 80.3887 313.447V303.766C80.3887 303.71 80.3915 303.655 80.3926 303.599C80.3913 303.541 80.3887 303.483 80.3887 303.425C80.3887 299.337 83.7032 296.023 87.7911 296.023H92.8126V227.182C88.11 225.51 84.0756 222.204 81.5352 217.801C80.8932 217.921 80.2538 218.046 79.6182 218.178L79.5948 218.164L79.4102 218.216C59.6928 222.256 41.686 231.981 27.3301 246.336C25.8406 247.846 23.8653 248.746 21.7208 248.747C19.6576 248.745 17.727 247.952 16.2823 246.507C14.8194 245.061 14.0068 243.128 14.0001 241.063C13.9918 238.963 14.8043 237.096 16.3272 235.523C33.7338 218.116 55.3715 206.791 79.213 202.544C80.9771 194.733 87.1147 188.261 95.46 186.474ZM30.1192 255.008C30.9709 254.157 32.3514 254.157 33.2032 255.008L76.5626 298.368C77.4142 299.219 77.4142 300.6 76.5626 301.452C75.7108 302.303 74.3294 302.303 73.4776 301.452L30.1192 258.093C29.2674 257.241 29.2674 255.86 30.1192 255.008ZM166.435 255.008C167.286 254.157 168.668 254.156 169.52 255.008C170.371 255.86 170.371 257.241 169.52 258.093L126.16 301.452C125.308 302.303 123.927 302.303 123.075 301.452C122.224 300.6 122.224 299.219 123.075 298.368L166.435 255.008Z"/>
</mask>
<path d="M95.46 186.474C106.777 184.051 117.915 191.151 120.536 202.373C144.771 206.485 166.752 217.865 184.359 235.472C187.367 238.48 187.367 243.37 184.359 246.377C181.352 249.385 176.461 249.385 173.453 246.377C159.054 231.979 141.031 222.241 121.332 218.216C121.138 218.149 120.94 218.095 120.738 218.056C119.953 217.905 119.157 217.762 118.354 217.625C116.037 221.724 112.372 225.04 107.813 226.869V296.023H112.957C117.045 296.023 120.358 299.337 120.358 303.425C120.358 303.481 120.355 303.536 120.354 303.591C120.355 303.649 120.358 303.708 120.358 303.766V313.447C120.358 317.723 116.892 321.189 112.616 321.189H107.813V425.5C107.813 429.643 104.455 433 100.313 433C96.1705 433 92.8126 429.643 92.8126 425.5V321.189H88.1319C83.8558 321.189 80.3888 317.723 80.3887 313.447V303.766C80.3887 303.71 80.3915 303.655 80.3926 303.599C80.3913 303.541 80.3887 303.483 80.3887 303.425C80.3887 299.337 83.7032 296.023 87.7911 296.023H92.8126V227.182C88.11 225.51 84.0756 222.204 81.5352 217.801C80.8932 217.921 80.2538 218.046 79.6182 218.178L79.5948 218.164L79.4102 218.216C59.6928 222.256 41.686 231.981 27.3301 246.336C25.8406 247.846 23.8653 248.746 21.7208 248.747C19.6576 248.745 17.727 247.952 16.2823 246.507C14.8194 245.061 14.0068 243.128 14.0001 241.063C13.9918 238.963 14.8043 237.096 16.3272 235.523C33.7338 218.116 55.3715 206.791 79.213 202.544C80.9771 194.733 87.1147 188.261 95.46 186.474ZM30.1192 255.008C30.9709 254.157 32.3514 254.157 33.2032 255.008L76.5626 298.368C77.4142 299.219 77.4142 300.6 76.5626 301.452C75.7108 302.303 74.3294 302.303 73.4776 301.452L30.1192 258.093C29.2674 257.241 29.2674 255.86 30.1192 255.008ZM166.435 255.008C167.286 254.157 168.668 254.156 169.52 255.008C170.371 255.86 170.371 257.241 169.52 258.093L126.16 301.452C125.308 302.303 123.927 302.303 123.075 301.452C122.224 300.6 122.224 299.219 123.075 298.368L166.435 255.008Z" fill="#E8E6D9"/>
<path d="M95.46 186.474L92.9479 174.74L92.9477 174.74L95.46 186.474ZM120.536 202.373L108.851 205.102C109.95 209.808 113.765 213.395 118.529 214.203L120.536 202.373ZM184.359 235.472L192.845 226.987L192.845 226.987L184.359 235.472ZM184.359 246.377L192.845 254.863L192.845 254.862L184.359 246.377ZM173.453 246.377L181.938 237.892L181.938 237.892L173.453 246.377ZM121.332 218.216L117.383 229.548C117.888 229.724 118.405 229.866 118.93 229.973L121.332 218.216ZM120.738 218.056L118.471 229.84L118.471 229.84L120.738 218.056ZM118.354 217.625L120.362 205.795C115.377 204.948 110.395 207.318 107.907 211.72L118.354 217.625ZM107.813 226.869L103.346 215.731C98.7951 217.556 95.8126 221.966 95.8126 226.869H107.813ZM107.813 296.023H95.8126C95.8126 302.65 101.185 308.023 107.813 308.023V296.023ZM112.957 296.023L112.957 284.023H112.957V296.023ZM120.358 303.425L132.358 303.426V303.425H120.358ZM120.354 303.591L108.356 303.327C108.353 303.503 108.353 303.68 108.357 303.857L120.354 303.591ZM120.358 313.447L132.358 313.447V313.447H120.358ZM112.616 321.189V333.189H112.617L112.616 321.189ZM107.813 321.189V309.189C101.185 309.189 95.8126 314.561 95.8126 321.189H107.813ZM107.813 425.5H95.8126H107.813ZM100.313 433L100.312 445H100.313V433ZM92.8126 425.5H80.8126H92.8126ZM92.8126 321.189H104.813C104.813 314.561 99.44 309.189 92.8126 309.189V321.189ZM80.3887 313.447H68.3887V313.447L80.3887 313.447ZM80.3926 303.599L92.39 303.853C92.3937 303.676 92.3935 303.499 92.3895 303.322L80.3926 303.599ZM80.3887 303.425H68.3887V303.426L80.3887 303.425ZM92.8126 296.023V308.023C99.44 308.023 104.813 302.65 104.813 296.023H92.8126ZM92.8126 227.182H104.813C104.813 222.105 101.617 217.577 96.8339 215.876L92.8126 227.182ZM81.5352 217.801L91.9294 211.804C89.3861 207.396 84.3388 205.072 79.3357 206.005L81.5352 217.801ZM79.6182 218.178L73.5718 228.544C76.1361 230.039 79.1639 230.532 82.07 229.925L79.6182 218.178ZM79.5948 218.164L85.6412 207.799C82.8344 206.162 79.4835 205.733 76.3547 206.61L79.5948 218.164ZM79.4102 218.216L81.8189 229.972C82.0983 229.915 82.3756 229.848 82.6503 229.771L79.4102 218.216ZM27.3301 246.336L18.8449 237.851C18.8261 237.87 18.8073 237.889 18.7886 237.908L27.3301 246.336ZM21.7208 248.747L21.7111 260.747H21.7212L21.7208 248.747ZM16.2823 246.507L24.7676 238.022C24.7515 238.006 24.7354 237.99 24.7192 237.974L16.2823 246.507ZM14.0001 241.063L26 241.024L26 241.015L14.0001 241.063ZM16.3272 235.523L7.84194 227.038C7.79637 227.083 7.75117 227.129 7.70634 227.175L16.3272 235.523ZM79.213 202.544L81.3171 214.358C86.0711 213.512 89.8544 209.898 90.9182 205.188L79.213 202.544ZM30.1192 255.008L21.6343 246.523L21.6339 246.523L30.1192 255.008ZM33.2032 255.008L41.6885 246.523L41.687 246.522L33.2032 255.008ZM76.5626 298.368L85.0487 289.883L85.0478 289.882L76.5626 298.368ZM76.5626 301.452L85.0478 309.937L85.0482 309.937L76.5626 301.452ZM73.4776 301.452L64.9923 309.937L73.4776 301.452ZM30.1192 258.093L38.6045 249.608L30.1192 258.093ZM166.435 255.008L157.95 246.523L157.949 246.523L166.435 255.008ZM169.52 255.008L178.006 246.524L178.005 246.523L169.52 255.008ZM169.52 258.093L178.005 266.579L178.005 266.578L169.52 258.093ZM126.16 301.452L117.675 292.966L117.675 292.966L126.16 301.452ZM123.075 301.452L114.588 309.935L114.59 309.937L123.075 301.452ZM123.075 298.368L114.59 289.882L114.588 289.884L123.075 298.368ZM95.46 186.474L97.9721 198.208C102.88 197.157 107.714 200.237 108.851 205.102L120.536 202.373L132.222 199.643C128.115 182.065 110.673 170.945 92.9479 174.74L95.46 186.474ZM120.536 202.373L118.529 214.203C140.284 217.895 160.009 228.092 175.874 243.957L184.359 235.472L192.845 226.987C173.495 207.637 149.257 195.074 122.544 190.542L120.536 202.373ZM184.359 235.472L175.874 243.957C174.195 242.278 174.195 239.571 175.874 237.892L184.359 246.377L192.845 254.862C200.538 247.169 200.538 234.681 192.845 226.987L184.359 235.472ZM184.359 246.377L175.874 237.892C177.553 236.213 180.26 236.213 181.938 237.892L173.453 246.377L164.968 254.863C172.662 262.556 185.151 262.556 192.845 254.863L184.359 246.377ZM173.453 246.377L181.938 237.892C165.899 221.852 145.769 210.961 123.734 206.459L121.332 218.216L118.93 229.973C136.293 233.521 152.21 242.105 164.968 254.863L173.453 246.377ZM121.332 218.216L125.281 206.885C124.556 206.632 123.796 206.424 123.006 206.272L120.738 218.056L118.471 229.84C118.084 229.766 117.721 229.666 117.383 229.548L121.332 218.216ZM120.738 218.056L123.006 206.272C122.125 206.103 121.242 205.944 120.362 205.795L118.354 217.625L116.345 229.456C117.073 229.58 117.782 229.707 118.471 229.84L120.738 218.056ZM118.354 217.625L107.907 211.72C106.889 213.522 105.296 214.949 103.346 215.731L107.813 226.869L112.28 238.006C119.447 235.131 125.185 229.927 128.8 223.53L118.354 217.625ZM107.813 226.869H95.8126V296.023H107.813H119.813V226.869H107.813ZM107.813 296.023V308.023H112.957V296.023V284.023H107.813V296.023ZM112.957 296.023L112.957 308.023C110.416 308.023 108.358 305.963 108.358 303.425H120.358H132.358C132.358 292.712 123.674 284.023 112.957 284.023L112.957 296.023ZM120.358 303.425L108.358 303.425C108.358 303.309 108.36 303.214 108.362 303.153C108.364 303.093 108.365 303.05 108.365 303.045C108.365 303.044 108.366 303.041 108.365 303.053C108.365 303.062 108.364 303.081 108.363 303.103C108.362 303.147 108.359 303.228 108.356 303.327L120.354 303.591L132.351 303.856C132.349 303.927 132.347 303.981 132.347 303.997C132.346 304.005 132.346 304.01 132.346 304.005C132.346 304.003 132.347 303.987 132.348 303.971C132.349 303.939 132.351 303.868 132.354 303.781C132.356 303.692 132.358 303.57 132.358 303.426L120.358 303.425ZM120.354 303.591L108.357 303.857C108.359 303.948 108.361 304.022 108.362 304.062C108.363 304.082 108.364 304.1 108.364 304.107C108.365 304.118 108.364 304.116 108.364 304.115C108.364 304.11 108.363 304.071 108.361 304.016C108.36 303.96 108.358 303.873 108.358 303.766H120.358H132.358C132.358 303.63 132.356 303.514 132.354 303.428C132.352 303.345 132.35 303.276 132.349 303.242C132.348 303.226 132.347 303.21 132.347 303.206C132.347 303.199 132.347 303.202 132.347 303.208C132.348 303.219 132.349 303.264 132.351 303.326L120.354 303.591ZM120.358 303.766H108.358V313.447H120.358H132.358V303.766H120.358ZM120.358 313.447L108.358 313.447C108.358 311.095 110.265 309.189 112.616 309.189L112.616 321.189L112.617 333.189C123.52 333.189 132.358 324.35 132.358 313.447L120.358 313.447ZM112.616 321.189V309.189H107.813V321.189V333.189H112.616V321.189ZM107.813 321.189H95.8126V425.5H107.813H119.813V321.189H107.813ZM107.813 425.5H95.8126C95.8126 423.015 97.8273 421 100.313 421V433V445C111.082 445 119.813 436.27 119.813 425.5H107.813ZM100.313 433L100.313 421C102.798 421 104.813 423.015 104.813 425.5H92.8126H80.8126C80.8126 436.27 89.5431 445 100.312 445L100.313 433ZM92.8126 425.5H104.813V321.189H92.8126H80.8126V425.5H92.8126ZM92.8126 321.189V309.189H88.1319V321.189V333.189H92.8126V321.189ZM88.1319 321.189V309.189C90.4814 309.189 92.3887 311.094 92.3887 313.447L80.3887 313.447L68.3887 313.447C68.3889 324.352 77.2302 333.189 88.1319 333.189V321.189ZM80.3887 313.447H92.3887V303.766H80.3887H68.3887V313.447H80.3887ZM80.3887 303.766H92.3887C92.3887 303.849 92.3877 303.916 92.3868 303.961C92.386 304.004 92.3851 304.035 92.3849 304.04C92.3848 304.043 92.3848 304.043 92.385 304.036C92.3852 304.032 92.3856 304.018 92.386 304.004C92.3869 303.976 92.3885 303.92 92.39 303.853L80.3926 303.599L68.3953 303.345C68.3962 303.306 68.397 303.278 68.397 303.277C68.397 303.277 68.397 303.277 68.3967 303.287C68.3965 303.294 68.3961 303.308 68.3956 303.325C68.3939 303.383 68.3887 303.555 68.3887 303.766H80.3887ZM80.3926 303.599L92.3895 303.322C92.3882 303.268 92.3868 303.222 92.3862 303.2C92.386 303.194 92.3859 303.189 92.3858 303.185C92.3856 303.181 92.3856 303.179 92.3855 303.176C92.3854 303.172 92.3854 303.173 92.3855 303.177C92.3857 303.184 92.3865 303.212 92.3872 303.252C92.3879 303.292 92.3887 303.352 92.3887 303.425L80.3887 303.425L68.3887 303.426C68.3887 303.622 68.393 303.782 68.3949 303.848C68.3954 303.866 68.3959 303.882 68.3961 303.892C68.3966 303.908 68.3965 303.903 68.3967 303.911C68.3969 303.918 68.3964 303.902 68.3958 303.876L80.3926 303.599ZM80.3887 303.425H92.3887C92.3887 305.965 90.3306 308.023 87.7911 308.023V296.023V284.023C77.0758 284.023 68.3887 292.71 68.3887 303.425H80.3887ZM87.7911 296.023V308.023H92.8126V296.023V284.023H87.7911V296.023ZM92.8126 296.023H104.813V227.182H92.8126H80.8126V296.023H92.8126ZM92.8126 227.182L96.8339 215.876C94.7752 215.144 93.021 213.696 91.9294 211.804L81.5352 217.801L71.1411 223.798C75.1303 230.713 81.4449 235.875 88.7913 238.488L92.8126 227.182ZM81.5352 217.801L79.3357 206.005C78.6314 206.136 77.9053 206.277 77.1665 206.431L79.6182 218.178L82.07 229.925C82.6023 229.814 83.155 229.706 83.7347 229.598L81.5352 217.801ZM79.6182 218.178L85.6647 207.813L85.6412 207.799L79.5948 218.164L73.5483 228.53L73.5718 228.544L79.6182 218.178ZM79.5948 218.164L76.3547 206.61L76.1701 206.662L79.4102 218.216L82.6503 229.771L82.8349 229.719L79.5948 218.164ZM79.4102 218.216L77.0016 206.46C54.9599 210.977 34.8462 221.85 18.8449 237.851L27.3301 246.336L35.8154 254.822C48.5257 242.111 64.4258 233.536 81.8189 229.972L79.4102 218.216ZM27.3301 246.336L18.7886 237.908C19.3611 237.328 20.3904 236.747 21.7203 236.747L21.7208 248.747L21.7212 260.747C27.3402 260.746 32.3201 258.364 35.8717 254.765L27.3301 246.336ZM21.7208 248.747L21.7304 236.747C22.7987 236.747 23.9307 237.185 24.7676 238.022L16.2823 246.507L7.79701 254.993C11.5233 258.719 16.5164 260.742 21.7111 260.747L21.7208 248.747ZM16.2823 246.507L24.7192 237.974C25.5263 238.772 25.9963 239.895 26 241.024L14.0001 241.063L2.00013 241.102C2.01718 246.36 4.11255 251.35 7.84537 255.041L16.2823 246.507ZM14.0001 241.063L26 241.015C26.0022 241.567 25.8887 242.187 25.638 242.778C25.3944 243.353 25.1031 243.71 24.9481 243.87L16.3272 235.523L7.70634 227.175C4.22875 230.767 1.97823 235.571 2.00016 241.11L14.0001 241.063ZM16.3272 235.523L24.8125 244.008C40.5061 228.315 59.9256 218.168 81.3171 214.358L79.213 202.544L77.1088 190.73C50.8175 195.413 26.9615 207.918 7.84194 227.038L16.3272 235.523ZM79.213 202.544L90.9182 205.188C91.6902 201.769 94.3691 198.98 97.9723 198.208L95.46 186.474L92.9477 174.74C79.8603 177.542 70.264 187.696 67.5077 199.901L79.213 202.544ZM30.1192 255.008L38.6041 263.494C34.7685 267.329 28.5525 267.327 24.7194 263.495L33.2032 255.008L41.687 246.522C36.1504 240.987 27.1733 240.984 21.6343 246.523L30.1192 255.008ZM33.2032 255.008L24.7179 263.494L68.0773 306.853L76.5626 298.368L85.0478 289.882L41.6885 246.523L33.2032 255.008ZM76.5626 298.368L68.0764 306.852C64.2433 303.018 64.2423 296.802 68.0769 292.967L76.5626 301.452L85.0482 309.937C90.5862 304.398 90.585 295.421 85.0487 289.883L76.5626 298.368ZM76.5626 301.452L68.0773 292.966C71.9118 289.132 78.1284 289.132 81.9629 292.966L73.4776 301.452L64.9923 309.937C70.5304 315.475 79.5098 315.475 85.0478 309.937L76.5626 301.452ZM73.4776 301.452L81.9629 292.966L38.6045 249.608L30.1192 258.093L21.6339 266.578L64.9923 309.937L73.4776 301.452ZM30.1192 258.093L38.6045 249.608C42.439 253.442 42.439 259.659 38.6045 263.494L30.1192 255.008L21.6339 246.523C16.0959 252.061 16.0959 261.04 21.6339 266.578L30.1192 258.093ZM166.435 255.008L174.92 263.494C171.085 267.328 164.869 267.328 161.034 263.494L169.52 255.008L178.005 246.523C172.467 240.985 163.487 240.985 157.95 246.523L166.435 255.008ZM169.52 255.008L161.033 263.493C157.201 259.659 157.199 253.443 161.034 249.608L169.52 258.093L178.005 266.578C183.544 261.04 183.542 252.061 178.006 246.524L169.52 255.008ZM169.52 258.093L161.034 249.608L117.675 292.966L126.16 301.452L134.645 309.937L178.005 266.579L169.52 258.093ZM126.16 301.452L117.675 292.966C121.509 289.132 127.726 289.132 131.561 292.966L123.075 301.452L114.59 309.937C120.128 315.475 129.107 315.475 134.646 309.937L126.16 301.452ZM123.075 301.452L131.562 292.968C135.395 296.803 135.394 303.017 131.563 306.851L123.075 298.368L114.588 289.884C109.054 295.421 109.052 304.397 114.588 309.935L123.075 301.452ZM123.075 298.368L131.561 306.853L174.92 263.494L166.435 255.008L157.949 246.523L114.59 289.882L123.075 298.368Z" fill="#827975" mask="url(#path-1-outside-1_29_429)"/>
</svg>
