<svg width="200" height="448" viewBox="0 0 200 448" fill="none" xmlns="http://www.w3.org/2000/svg">
<path d="M12.272 230.28C32.0025 210.549 56.9601 198.232 84.4107 194.708L85.4023 194.582C90.0409 194.016 94.7842 193.711 99.5361 193.672L100.554 193.668H100.557L101.576 193.672C106.671 193.713 111.749 194.059 116.696 194.706L117.981 194.878C144.928 198.625 169.405 210.843 188.79 230.228C194.14 235.579 194.14 244.269 188.79 249.62C183.439 254.97 174.749 254.97 169.398 249.62C156.032 236.253 139.379 227.167 121.186 223.275L120.318 223.094C120.111 223.052 119.907 222.996 119.706 222.932C116.418 222.302 112.931 221.801 109.432 221.476L109.425 221.476C106.663 221.216 103.68 221.082 100.558 221.081L99.3566 221.087C96.9881 221.114 94.8202 221.219 92.7765 221.402L91.7642 221.5C91.7246 221.504 91.685 221.507 91.6454 221.511C88.044 221.813 84.4802 222.33 81.0326 223.05L81.0333 223.051C80.9604 223.066 80.8872 223.078 80.8144 223.09L80.8012 223.093C62.246 226.895 45.2925 236.045 31.7595 249.578L31.7588 249.578C29.2414 252.115 25.7768 253.746 21.9084 253.746H21.9028C18.3867 253.743 15.0282 252.421 12.4715 249.988L12.2271 249.749C9.64452 247.184 8.19853 243.732 8.18676 240.081C8.17283 236.262 9.70594 232.929 12.2043 230.349L12.272 230.28ZM74.0064 218.75C74.0429 218.884 74.0851 219.015 74.13 219.144C74.0851 219.015 74.0429 218.884 74.0064 218.75Z" fill="#D07BD3" stroke="#321F15" stroke-width="12" stroke-linejoin="round"/>
<rect x="6" y="6" width="256" height="27" rx="13.5" transform="matrix(-3.18083e-08 -1 -1 6.00688e-08 120 444)" fill="#B86DC6" stroke="#321F15" stroke-width="12" stroke-linejoin="round"/>
<rect x="74.5765" y="289.022" width="51.9695" height="37.166" rx="13.7426" fill="#FB1BAD" stroke="#321F15" stroke-width="12"/>
<rect x="80.5765" y="295.022" width="39.9695" height="14.8035" rx="7.40176" fill="#FFA4C3"/>
<circle cx="100.085" cy="206.202" r="27.1978" transform="rotate(-12.0847 100.085 206.202)" fill="#A3C3CB" stroke="#321F15" stroke-width="12"/>
<circle cx="99.3402" cy="200.615" r="11.8915" transform="rotate(-12.0847 99.3402 200.615)" fill="white"/>
<circle cx="100.085" cy="259.493" r="25.5616" transform="rotate(-12.0847 100.085 259.493)" fill="#A3C3CB" stroke="#321F15" stroke-width="8.72755"/>
<circle cx="99.3402" cy="253.906" r="11.8915" transform="rotate(-12.0847 99.3402 253.906)" fill="white"/>
<rect x="26.9736" y="255.55" width="7.45925" height="68.7781" rx="3.72962" transform="rotate(-45 26.9736 255.55)" fill="#321F15" stroke="#321F15" stroke-width="3.09704"/>
<rect x="2.18994" width="7.45925" height="68.7781" rx="3.72962" transform="matrix(-0.707107 -0.707107 -0.707107 0.707107 175.387 257.098)" fill="#321F15" stroke="#321F15" stroke-width="3.09704"/>
</svg>
